<svg width="20" height="20" viewBox="0 0 20 20" fill="none" xmlns="http://www.w3.org/2000/svg">
<g clip-path="url(#clip0_67_2820)">
<path d="M13.9792 4.00004L17.1111 7.13198C17.2431 7.26393 17.2431 7.47921 17.1111 7.61115L9.52778 15.1945L6.30556 15.5521C5.875 15.6007 5.51042 15.2362 5.55903 14.8056L5.91667 11.5834L13.5 4.00004C13.6319 3.8681 13.8472 3.8681 13.9792 4.00004ZM19.6042 3.2049L17.9097 1.51046C17.3819 0.98268 16.5243 0.98268 15.9931 1.51046L14.7639 2.73962C14.6319 2.87157 14.6319 3.08685 14.7639 3.21879L17.8958 6.35073C18.0278 6.48268 18.2431 6.48268 18.375 6.35073L19.6042 5.12157C20.1319 4.59032 20.1319 3.73268 19.6042 3.2049ZM13.3333 13.132V16.6667H2.22222V5.5556H10.2014C10.3125 5.5556 10.4167 5.51046 10.4965 5.43407L11.8854 4.04518C12.1493 3.78129 11.9618 3.33337 11.5903 3.33337H1.66667C0.746528 3.33337 0 4.0799 0 5.00004V17.2223C0 18.1424 0.746528 18.8889 1.66667 18.8889H13.8889C14.809 18.8889 15.5556 18.1424 15.5556 17.2223V11.7431C15.5556 11.3716 15.1076 11.1875 14.8438 11.448L13.4549 12.8368C13.3785 12.9167 13.3333 13.0209 13.3333 13.132Z" fill="#A259FF"/>
</g>
<defs>
<clipPath id="clip0_67_2820">
<rect width="20" height="20" fill="white"/>
</clipPath>
</defs>
</svg>
